<svg width="100" height="100" viewBox="0 0 100 100" fill="none" xmlns="http://www.w3.org/2000/svg">
<path d="M100 50C100 77.6142 77.6142 100 50 100C22.3858 100 0 77.6142 0 50C0 22.3858 22.3858 0 50 0C77.6142 0 100 22.3858 100 50ZM7.35402 50C7.35402 73.5527 26.4473 92.646 50 92.646C73.5527 92.646 92.646 73.5527 92.646 50C92.646 26.4473 73.5527 7.35402 50 7.35402C26.4473 7.35402 7.35402 26.4473 7.35402 50Z" fill="#CCCCCC" fill-opacity="0.3"/>
<path d="M92.2571 68.9779C94.1096 69.8098 96.2996 68.9861 96.9933 67.0775C100.817 56.5572 101.01 45.0181 97.4784 34.3218C93.5606 22.4578 85.3431 12.4904 74.4437 6.3823C63.5444 0.274224 50.7532 -1.5319 38.5888 1.31957C27.6217 3.89038 17.8806 10.0791 10.9032 18.8319C9.63738 20.4198 10.078 22.7178 11.7546 23.8636C13.4313 25.0094 15.7075 24.5671 16.9934 22.9953C22.9191 15.7523 31.0898 10.6308 40.2671 8.4795C50.6424 6.04743 61.5523 7.58791 70.8485 12.7976C80.1448 18.0073 87.1537 26.5087 90.4952 36.6278C93.4509 45.5785 93.3477 55.2211 90.263 64.0562C89.5936 65.9735 90.4046 68.1459 92.2571 68.9779Z" fill="#702DFF"/>
</svg>
