<svg width="125" height="88" viewBox="0 0 125 88" fill="none" xmlns="http://www.w3.org/2000/svg">
<path d="M93 16C93 24.8366 100.163 32 109 32C117.837 32 125 24.8366 125 16C125 7.16344 117.837 0 109 0C100.163 0 93 7.16344 93 16Z" fill="#49BBBD"/>
<path d="M108.999 9.2002C111.199 9.2002 111.499 9.2002 112.399 9.2002C113.199 9.2002 113.599 9.4002 113.899 9.5002C114.299 9.7002 114.599 9.8002 114.899 10.1002C115.199 10.4002 115.399 10.7002 115.499 11.1002C115.599 11.4002 115.699 11.8002 115.799 12.6002C115.799 13.5002 115.799 13.7002 115.799 16.0002C115.799 18.3002 115.799 18.5002 115.799 19.4002C115.799 20.2002 115.599 20.6002 115.499 20.9002C115.299 21.3002 115.199 21.6002 114.899 21.9002C114.599 22.2002 114.299 22.4002 113.899 22.5002C113.599 22.6002 113.199 22.7002 112.399 22.8002C111.499 22.8002 111.299 22.8002 108.999 22.8002C106.699 22.8002 106.499 22.8002 105.599 22.8002C104.799 22.8002 104.399 22.6002 104.099 22.5002C103.699 22.3002 103.399 22.2002 103.099 21.9002C102.799 21.6002 102.599 21.3002 102.499 20.9002C102.399 20.6002 102.299 20.2002 102.199 19.4002C102.199 18.5002 102.199 18.3002 102.199 16.0002C102.199 13.7002 102.199 13.5002 102.199 12.6002C102.199 11.8002 102.399 11.4002 102.499 11.1002C102.699 10.7002 102.799 10.4002 103.099 10.1002C103.399 9.8002 103.699 9.6002 104.099 9.5002C104.399 9.4002 104.799 9.3002 105.599 9.2002C106.499 9.2002 106.799 9.2002 108.999 9.2002ZM108.999 7.7002C106.699 7.7002 106.499 7.7002 105.599 7.7002C104.699 7.7002 104.099 7.9002 103.599 8.1002C103.099 8.3002 102.599 8.6002 102.099 9.1002C101.599 9.6002 101.399 10.0002 101.099 10.6002C100.899 11.1002 100.799 11.7002 100.699 12.6002C100.699 13.5002 100.699 13.8002 100.699 16.0002C100.699 18.3002 100.699 18.5002 100.699 19.4002C100.699 20.3002 100.899 20.9002 101.099 21.4002C101.299 21.9002 101.599 22.4002 102.099 22.9002C102.599 23.4002 102.999 23.6002 103.599 23.9002C104.099 24.1002 104.699 24.2002 105.599 24.3002C106.499 24.3002 106.799 24.3002 108.999 24.3002C111.199 24.3002 111.499 24.3002 112.399 24.3002C113.299 24.3002 113.899 24.1002 114.399 23.9002C114.899 23.7002 115.399 23.4002 115.899 22.9002C116.399 22.4002 116.599 22.0002 116.899 21.4002C117.099 20.9002 117.199 20.3002 117.299 19.4002C117.299 18.5002 117.299 18.2002 117.299 16.0002C117.299 13.8002 117.299 13.5002 117.299 12.6002C117.299 11.7002 117.099 11.1002 116.899 10.6002C116.699 10.1002 116.399 9.6002 115.899 9.1002C115.399 8.6002 114.999 8.4002 114.399 8.1002C113.899 7.9002 113.299 7.8002 112.399 7.7002C111.499 7.7002 111.299 7.7002 108.999 7.7002Z" fill="white"/>
<path d="M108.999 11.7002C106.599 11.7002 104.699 13.6002 104.699 16.0002C104.699 18.4002 106.599 20.3002 108.999 20.3002C111.399 20.3002 113.299 18.4002 113.299 16.0002C113.299 13.6002 111.399 11.7002 108.999 11.7002ZM108.999 18.8002C107.499 18.8002 106.199 17.6002 106.199 16.0002C106.199 14.5002 107.399 13.2002 108.999 13.2002C110.499 13.2002 111.799 14.4002 111.799 16.0002C111.799 17.5002 110.499 18.8002 108.999 18.8002Z" fill="white"/>
<path d="M113.399 12.6002C113.952 12.6002 114.399 12.1525 114.399 11.6002C114.399 11.0479 113.952 10.6002 113.399 10.6002C112.847 10.6002 112.399 11.0479 112.399 11.6002C112.399 12.1525 112.847 12.6002 113.399 12.6002Z" fill="white"/>
<path fill-rule="evenodd" clip-rule="evenodd" d="M0.541504 71.7542C0.541504 62.8263 7.8803 55.5889 16.9332 55.5889C25.986 55.5889 33.3248 62.8263 33.3248 71.7542C33.3248 80.6821 25.986 87.9196 16.9332 87.9196C7.8803 87.9196 0.541504 80.6821 0.541504 71.7542ZM23.1825 67.2077C23.8996 67.1067 24.5143 67.0056 25.129 66.7025C24.7192 67.4098 24.1045 68.016 23.3874 68.4201C23.5923 73.1687 20.1091 78.3214 13.8597 78.3214C12.0157 78.3214 10.2741 77.7152 8.73734 76.8059C10.479 77.008 12.323 76.5028 13.5524 75.5935C12.0157 75.5935 10.7863 74.5832 10.3765 73.2697C10.8887 73.3708 11.401 73.2697 11.9132 73.1687C10.3765 72.7646 9.24958 71.3501 9.24958 69.8346C9.76182 70.0367 10.2741 70.2387 10.7863 70.2387C9.35203 69.2284 8.83979 67.3087 9.76182 65.7932C11.5034 67.8139 13.9622 69.1273 16.7283 69.2284C16.216 67.2077 17.8552 65.187 20.0066 65.187C20.9286 65.187 21.8507 65.5912 22.4654 66.1974C23.2849 65.9953 24.0021 65.7932 24.6168 65.3891C24.4119 66.1974 23.8996 66.8036 23.1825 67.2077Z" fill="#49BBBD"/>
<path d="M58.937 71.7542C58.937 80.6821 66.2758 87.9196 75.3287 87.9196C84.3815 87.9196 91.7203 80.6821 91.7203 71.7542C91.7203 62.8263 84.3815 55.5889 75.3287 55.5889C66.2758 55.5889 58.937 62.8263 58.937 71.7542Z" fill="#49BBBD"/>
<path d="M83.5245 71.7541C83.5245 67.3086 79.8364 63.6714 75.3286 63.6714C70.8209 63.6714 67.1328 67.3086 67.1328 71.7541C67.1328 75.7954 70.1038 79.1295 73.9968 79.7357V74.0778H71.9479V71.7541H73.9968V69.9355C73.9968 67.9148 75.2262 66.8034 77.0703 66.8034C77.9923 66.8034 78.9143 67.0055 78.9143 67.0055V69.0262H77.8898C76.8654 69.0262 76.558 69.6324 76.558 70.2386V71.7541H78.8119L78.4021 74.0778H76.4556V79.8367C80.5535 79.2305 83.5245 75.7954 83.5245 71.7541Z" fill="white"/>
</svg>
