<svg width="32" height="32" viewBox="0 0 32 32" fill="none" xmlns="http://www.w3.org/2000/svg">
<path d="M7.20011 2.79999H24.8001C26.2668 2.79999 27.4668 3.99999 27.4668 5.46665V8.39999C27.4668 9.46666 26.8001 10.8 26.1334 11.4667L20.4001 16.5333C19.6001 17.2 19.0668 18.5333 19.0668 19.6V25.3333C19.0668 26.1333 18.5334 27.2 17.8668 27.6L16.0001 28.8C14.2668 29.8667 11.8668 28.6667 11.8668 26.5333V19.4667C11.8668 18.5333 11.3334 17.3333 10.8001 16.6667L5.73345 11.3333C5.06678 10.6667 4.53345 9.46665 4.53345 8.66665V5.59999C4.53345 3.99999 5.73345 2.79999 7.20011 2.79999Z" stroke="#5F5F5F" stroke-width="1.5" stroke-miterlimit="10" stroke-linecap="round" stroke-linejoin="round"/>
<path d="M14.5733 2.79999L8 13.3333" stroke="#5F5F5F" stroke-width="1.5" stroke-miterlimit="10" stroke-linecap="round" stroke-linejoin="round"/>
</svg>
