<svg width="16" height="16" viewBox="0 0 16 16" fill="none" xmlns="http://www.w3.org/2000/svg">
<path d="M5.99992 14.6666H9.99992C13.3333 14.6666 14.6666 13.3333 14.6666 9.99998V5.99998C14.6666 2.66665 13.3333 1.33331 9.99992 1.33331H5.99992C2.66659 1.33331 1.33325 2.66665 1.33325 5.99998V9.99998C1.33325 13.3333 2.66659 14.6666 5.99992 14.6666Z" stroke="#292D32" stroke-width="1.5" stroke-linecap="round" stroke-linejoin="round"/>
<path d="M1.33325 8.66664H3.83992C4.34659 8.66664 4.80659 8.95331 5.03325 9.40664L5.62659 10.6C5.99992 11.3333 6.66659 11.3333 6.82659 11.3333H9.17992C9.68659 11.3333 10.1466 11.0466 10.3733 10.5933L10.9666 9.39997C11.1933 8.94664 11.6533 8.65997 12.1599 8.65997H14.6533" stroke="#292D32" stroke-width="1.5" stroke-linecap="round" stroke-linejoin="round"/>
</svg>
