<svg width="16" height="17" viewBox="0 0 16 17" fill="none" xmlns="http://www.w3.org/2000/svg">
<path d="M12.0002 5.27335C11.9602 5.26668 11.9135 5.26668 11.8735 5.27335C10.9535 5.24001 10.2202 4.48668 10.2202 3.55334C10.2202 2.60001 10.9869 1.83334 11.9402 1.83334C12.8935 1.83334 13.6602 2.60668 13.6602 3.55334C13.6535 4.48668 12.9202 5.24001 12.0002 5.27335Z" stroke="#202020" stroke-width="1.5" stroke-linecap="round" stroke-linejoin="round"/>
<path d="M11.3135 10.1267C12.2268 10.28 13.2335 10.12 13.9401 9.64669C14.8801 9.02003 14.8801 7.99336 13.9401 7.36669C13.2268 6.89336 12.2068 6.73336 11.2935 6.89336" stroke="#202020" stroke-width="1.5" stroke-linecap="round" stroke-linejoin="round"/>
<path d="M3.97983 5.27335C4.01983 5.26668 4.06649 5.26668 4.10649 5.27335C5.02649 5.24001 5.75982 4.48668 5.75982 3.55334C5.75982 2.60001 4.99316 1.83334 4.03983 1.83334C3.08649 1.83334 2.31982 2.60668 2.31982 3.55334C2.32649 4.48668 3.05983 5.24001 3.97983 5.27335Z" stroke="#202020" stroke-width="1.5" stroke-linecap="round" stroke-linejoin="round"/>
<path d="M4.66663 10.1267C3.75329 10.28 2.74663 10.12 2.03996 9.64669C1.09996 9.02003 1.09996 7.99336 2.03996 7.36669C2.75329 6.89336 3.77329 6.73336 4.68663 6.89336" stroke="#202020" stroke-width="1.5" stroke-linecap="round" stroke-linejoin="round"/>
<path d="M8.00021 10.2533C7.96021 10.2467 7.91355 10.2467 7.87355 10.2533C6.95355 10.22 6.22021 9.46666 6.22021 8.53333C6.22021 7.57999 6.98688 6.81332 7.94021 6.81332C8.89355 6.81332 9.66021 7.58666 9.66021 8.53333C9.65355 9.46666 8.92021 10.2267 8.00021 10.2533Z" stroke="#202020" stroke-width="1.5" stroke-linecap="round" stroke-linejoin="round"/>
<path d="M6.05998 12.3533C5.11998 12.98 5.11998 14.0067 6.05998 14.6333C7.12665 15.3467 8.87331 15.3467 9.93998 14.6333C10.88 14.0067 10.88 12.98 9.93998 12.3533C8.87998 11.6467 7.12665 11.6467 6.05998 12.3533Z" stroke="#202020" stroke-width="1.5" stroke-linecap="round" stroke-linejoin="round"/>
</svg>
