<?xml version="1.0" encoding="utf-8"?>
<!-- Generator: Adobe Illustrator 21.1.0, SVG Export Plug-In . SVG Version: 6.00 Build 0)  -->
<svg version="1.1" id="Layer_1" xmlns="http://www.w3.org/2000/svg" xmlns:xlink="http://www.w3.org/1999/xlink" x="0px"
  y="0px" viewBox="0 0 134 134" style="enable-background:new 0 0 134 134;" xml:space="preserve">
  <style type="text/css">
    .st0 {
      fill: black;
    }

    .st1 {
      fill: white;
    }

    .st2 {
      fill: gray;
    }

    .st3 {
      fill: gray;
    }

    .st4 {
      fill: rgb(82, 82, 82);
    }

    .st5 {
      fill: rgb(82, 82, 82);
    }

  </style>
  <g>
    <circle class="st0" cx="67" cy="67" r="67" />
    <g>
      <g>
        <g>
          <g>
            <g>
              <path class="st1" d="M54.6,82.5L54.6,82.5c-4-4-6.4-9.4-6.4-15.5c0-6,2.5-11.5,6.4-15.5l0,0c3.4-3.4,3.4-8.8,0-12.2
							c-3.4-3.4-8.8-3.4-12.2,0C35.4,46.4,31,56.2,31,67c0,10.8,4.4,20.6,11.5,27.6c3.4,3.4,8.8,3.4,12.2,0
							C58,91.3,58,85.9,54.6,82.5L54.6,82.5z" />
            </g>
          </g>
        </g>
      </g>
      <g>
        <g>
          <g>
            <g>
              <path class="st2" d="M54.6,51.5L54.6,51.5c4-4,9.4-6.4,15.5-6.4c6,0,11.5,2.5,15.5,6.4l0,0c3.4,3.4,8.8,3.4,12.2,0
							c3.4-3.4,3.4-8.8,0-12.2c-7.1-7.1-16.8-11.5-27.6-11.5c-10.8,0-20.6,4.4-27.6,11.5c-3.4,3.4-3.4,8.8,0,12.2
							C45.8,54.9,51.2,54.9,54.6,51.5L54.6,51.5z" />
            </g>
          </g>
        </g>
      </g>
      <g>
        <g>
          <g>
            <g>
              <path class="st3" d="M85.6,82.5L85.6,82.5c-4,4-9.4,6.4-15.5,6.4c-6,0-11.5-2.5-15.5-6.4l0,0c-3.4-3.4-8.8-3.4-12.2,0
							c-3.4,3.4-3.4,8.8,0,12.2c7.1,7.1,16.8,11.5,27.6,11.5c10.8,0,20.6-4.4,27.6-11.5c3.4-3.4,3.4-8.8,0-12.2
							C94.4,79.1,88.9,79.1,85.6,82.5C85.6,82.5,85.6,82.5,85.6,82.5z" />
            </g>
          </g>
        </g>
      </g>
      <g>
        <g>
          <g>
            <g>

              <ellipse transform="matrix(0.7069 -0.7073 0.7073 0.7069 -17.9285 47.6431)" class="st4" cx="48.5" cy="45.5"
                rx="8.6" ry="8.6" />
            </g>
          </g>
        </g>
      </g>
      <g>
        <g>
          <g>
            <g>

              <ellipse transform="matrix(0.7069 -0.7073 0.7073 0.7069 -48.4279 60.2805)" class="st5" cx="48.5" cy="88.6"
                rx="8.6" ry="8.6" />
            </g>
          </g>
        </g>
      </g>
    </g>
  </g>
</svg>
