<?xml version="1.0" encoding="UTF-8" standalone="no"?><!DOCTYPE svg PUBLIC "-//W3C//DTD SVG 1.1//EN" "http://www.w3.org/Graphics/SVG/1.1/DTD/svg11.dtd"><svg width="100%" height="100%" viewBox="0 0 1486 984" version="1.1" xmlns="http://www.w3.org/2000/svg" xmlns:xlink="http://www.w3.org/1999/xlink" xml:space="preserve" xmlns:serif="http://www.serif.com/" style="fill-rule:evenodd;clip-rule:evenodd;stroke-linejoin:round;stroke-miterlimit:2;"><clipPath id="_clip1"><rect id="logo" x="5.74" y="-150.821" width="1502.94" height="1502.94"/></clipPath><g clip-path="url(#_clip1)"><g><path d="M959.148,751.437c-19.563,18.781 -68.554,54.399 -119.686,87.517c-74.374,48.173 -75.543,53.888 -157.188,92.169c-66.767,31.305 -143.905,42.121 -216.904,42.499c-259.652,1.343 -459.63,-231.819 -459.63,-483.788c0,-251.977 199.981,-485.121 459.633,-483.787c143.09,0.735 257.347,54.589 374.158,134.501c51.538,35.258 119.432,87.861 144.563,118.522c16.236,19.809 7.275,22.52 -10.303,27.48c-30.509,8.609 -100.354,-49.597 -161.26,-90.461c-99.303,-66.625 -223.831,-125.212 -347.44,-118.907c-57.936,2.956 -98.767,11.149 -151.953,36.141c-157.24,73.885 -240.925,230.907 -237.624,402.275c4.488,232.951 211.964,416.177 443.455,390.949c107.752,-11.743 199.394,-57.437 288.742,-114.458c41.356,-26.393 90.477,-54.851 115.331,-65.821c10.306,-4.549 27.777,-4.195 33.795,-0c6.017,4.194 8.388,19.334 2.311,25.169Z" style="fill:#1b1b1b;fill-rule:nonzero;"/><g><path d="M916.594,605.798c4.988,-1.995 9.145,-2.992 12.47,-2.992c5.32,-0 25.618,14.152 28.278,18.142c2.66,3.99 -12.317,-3.013 -12.317,3.305c-0,9.976 22.983,14.874 18.161,21.857c-4.821,6.983 0.46,5.044 -11.179,10.697c-19.618,9.31 -83.96,28.546 -115.217,34.032c-31.256,5.487 -62.014,8.23 -92.273,8.23c-41.897,0 -76.978,-4.738 -105.241,-14.215c-28.264,-9.477 -49.296,-22.528 -63.095,-39.154c-13.8,-16.625 -20.7,-35.413 -20.7,-56.361c0,-28.597 9.228,-52.953 27.682,-73.071c18.455,-20.117 45.638,-34.665 81.55,-43.643c-19.618,-5.652 -34.665,-15.628 -45.139,-29.926c-10.474,-14.298 -15.711,-47.882 -15.711,-47.882c-0,-23.942 7.564,-45.14 22.694,-63.594c15.129,-18.455 35.496,-32.67 61.1,-42.646c25.604,-9.975 53.701,-14.963 84.293,-14.963c41.232,0 72.156,8.895 92.772,26.685c20.616,17.789 30.924,40.816 30.924,69.08c-0,19.618 -3.824,36.66 -10.724,47.633c-6.329,10.066 -21.904,16.21 -30.674,18.205c-7.416,1.687 -16.959,-2.078 -21.947,-6.234c-4.987,-4.157 -7.065,-12.511 -7.98,-18.704c-0.907,-6.141 0.831,-11.805 2.494,-18.455c1.663,-10.973 2.494,-18.455 2.494,-22.445c-0,-11.971 -4.489,-21.697 -13.467,-29.178c-8.978,-7.482 -23.941,-11.223 -44.89,-11.223c-28.264,0 -50.875,5.986 -67.833,17.956c-16.959,11.971 -25.438,28.098 -25.438,48.381c0,15.629 6.401,28.514 19.203,38.655c12.802,10.142 49.587,13.093 62.596,16.709c5.218,1.451 12.137,1.663 15.462,4.988c3.326,3.325 6.913,10.354 4.489,14.963c-4.239,8.064 -16.319,27.218 -29.926,33.418c-16.418,7.482 -50.46,4.489 -68.582,11.472c-18.122,6.983 -31.256,15.878 -39.403,26.685c-8.147,10.806 -12.22,22.361 -12.22,34.664c0,20.616 9.643,36.162 28.929,46.636c19.286,10.474 49.878,15.711 91.775,15.711c27.598,0 56.777,-3.242 87.535,-9.726c30.757,-6.484 57.109,-14.381 79.055,-23.692Z" style="fill:#1b1b1b;fill-rule:nonzero;"/><path d="M1072.71,624.925c0.072,2.998 2.708,18.251 4.085,23.902c0.855,3.509 1.67,8.255 4.177,9.999c2.508,1.744 7.899,2.401 10.868,0.464c2.97,-1.938 4.863,-6.896 6.95,-12.088c5.341,-13.29 9.585,-30.575 13.376,-50.116c12.697,-65.452 19.478,-153.947 31.558,-215.32c7.534,-38.273 18.778,-67.32 31.369,-80.857c12.112,-13.024 26.205,-17.927 41.434,-16.145c11.605,1.359 22.682,7.061 31.824,18.861c6.613,8.536 12.737,21.976 17.195,39.608c12.47,49.314 15.278,140.768 20.853,217.714c1.653,22.818 3.553,44.261 6.175,62.595c10.264,-45.983 15.794,-111.3 22.68,-168.099c6.294,-51.922 14.512,-97.305 26.139,-119.757c11.776,-22.742 28.818,-31.001 45.092,-30.515c18.769,0.56 40.293,15.828 50.577,51.768c10.598,37.038 14.634,102.941 18.256,167.602c3.283,58.597 5.931,116.098 15.594,144.991c5.539,16.561 -3.41,34.504 -19.972,40.043c-16.561,5.538 -34.504,-3.411 -40.043,-19.972c-17.052,-50.988 -16.362,-184.377 -26.767,-270.768c-4.564,28.416 -8.179,62.14 -11.98,95.995c-7.331,65.287 -15.93,130.903 -30.934,165.503c-12.054,27.798 -30.562,40.689 -48.513,42.368c-17.773,1.663 -35.811,-6.51 -47.621,-31c-11.168,-23.156 -17.808,-71.102 -21.799,-126.181c-4.535,-62.58 -6.809,-135.188 -14.712,-184.709c-3.95,17.159 -7.241,37.475 -10.353,59.288c-10.431,73.13 -18.483,161.745 -35.015,214.596c-10.322,32.999 -26.396,54.21 -42.742,62.154c-24.053,11.688 -43.245,11.143 -58.303,5.677c-15.8,-5.735 -29.259,-19.259 -37.127,-34.109c-9.214,-17.39 -20.878,-71.534 -18.159,-70.231c-10.308,25.757 -28.098,38.635 -53.369,38.635c-18.954,0 -34.333,-6.739 -46.137,-20.216c-11.804,-13.477 -17.706,-31.148 -17.706,-53.011c-0,-23.96 6.151,-46.647 18.454,-68.061c12.303,-21.414 28.68,-38.635 49.13,-51.663c20.449,-13.028 42.146,-19.542 65.09,-19.542c7.315,-0 12.22,1.273 14.714,3.818c2.494,2.546 4.572,7.113 6.234,13.702c6.318,-1.198 13.301,-1.797 20.949,-1.797c7.98,0 14.132,1.797 18.455,5.391c4.322,3.594 6.484,8.686 6.484,15.275c-0,6.888 -1.663,18.868 -4.988,35.939c-3.658,18.27 -6.484,35.715 -8.479,52.338c-1.995,16.622 -3.18,48.122 -2.993,55.931Zm-99.755,-13.478c9.311,0 17.79,-5.84 25.438,-17.52c7.647,-11.681 14.464,-32.496 20.449,-62.446l9.477,-45.373c-13.633,0.299 -26.269,5.016 -37.907,14.151c-11.638,9.135 -20.948,21.189 -27.931,36.164c-6.983,14.975 -10.475,30.848 -10.475,47.62c0,8.985 1.912,15.799 5.736,20.441c3.824,4.642 8.895,6.963 15.213,6.963Z" style="fill:#1b1b1b;fill-rule:nonzero;"/></g><path d="M147.532,482.483c-10.328,15.455 -8.035,242.265 119.127,334.204c133.087,96.223 333.748,11.613 338.601,-14.431c5.689,-30.528 -173.237,-9.205 -276.633,-78.3c-103.397,-69.095 -170.767,-256.928 -181.095,-241.473Z" style="fill:#ffff0a;fill-opacity:0;"/></g></g></svg>