<?xml version="1.0" encoding="UTF-8" standalone="no"?><!DOCTYPE svg PUBLIC "-//W3C//DTD SVG 1.1//EN" "http://www.w3.org/Graphics/SVG/1.1/DTD/svg11.dtd"><svg width="100%" height="100%" viewBox="0 0 1575 1046" version="1.1" xmlns="http://www.w3.org/2000/svg" xmlns:xlink="http://www.w3.org/1999/xlink" xml:space="preserve" xmlns:serif="http://www.serif.com/" style="fill-rule:evenodd;clip-rule:evenodd;stroke-linejoin:round;stroke-miterlimit:2;"><g><g><path d="M1016.86,796.573c-20.67,19.843 -72.432,57.476 -126.456,92.467c-78.581,50.898 -79.816,56.936 -166.079,97.382c-70.544,33.076 -152.045,44.504 -229.173,44.903c-274.338,1.419 -485.628,-244.931 -485.628,-511.152c0,-266.23 211.293,-512.561 485.631,-511.151c151.184,0.776 271.904,57.676 395.322,142.108c54.453,37.253 126.187,92.831 152.74,125.226c17.154,20.93 7.686,23.794 -10.886,29.035c-32.235,9.096 -106.03,-52.403 -170.381,-95.578c-104.92,-70.394 -236.492,-132.294 -367.093,-125.633c-61.213,3.123 -104.353,11.78 -160.547,38.185c-166.134,78.065 -254.553,243.968 -251.065,425.029c4.742,246.128 223.953,439.717 468.538,413.062c113.847,-12.407 210.672,-60.685 305.074,-120.932c43.695,-27.886 95.595,-57.953 121.854,-69.544c10.889,-4.806 29.349,-4.432 35.707,0c6.357,4.432 8.862,20.428 2.442,26.593Z" style="fill:#fff;fill-rule:nonzero;"/><g><path d="M971.894,642.696c5.27,-2.108 9.662,-3.161 13.175,-3.161c5.621,-0 27.067,14.952 29.878,19.168c2.81,4.216 -13.014,-3.183 -13.014,3.492c-0,10.54 24.283,15.715 19.188,23.093c-5.094,7.378 0.486,5.33 -11.811,11.302c-20.728,9.837 -88.709,30.161 -121.734,35.957c-33.024,5.798 -65.522,8.696 -97.492,8.696c-44.267,-0 -81.332,-5.006 -111.194,-15.019c-29.863,-10.013 -52.084,-23.802 -66.664,-41.369c-14.581,-17.565 -21.871,-37.416 -21.871,-59.549c0,-30.214 9.75,-55.948 29.248,-77.204c19.499,-21.255 48.219,-36.626 86.163,-46.111c-20.728,-5.972 -36.626,-16.512 -47.693,-31.619c-11.066,-15.107 -16.599,-50.591 -16.599,-50.591c-0,-25.296 7.992,-47.693 23.977,-67.191c15.985,-19.498 37.504,-34.517 64.556,-45.058c27.053,-10.539 56.739,-15.809 89.061,-15.809c43.564,-0 76.238,9.398 98.02,28.194c21.782,18.795 32.673,43.125 32.673,72.988c-0,20.727 -4.04,38.733 -11.331,50.327c-6.687,10.635 -23.143,17.127 -32.409,19.235c-7.835,1.782 -17.918,-2.196 -23.188,-6.587c-5.269,-4.392 -7.465,-13.219 -8.431,-19.762c-0.959,-6.488 0.878,-12.473 2.635,-19.499c1.757,-11.593 2.635,-19.499 2.635,-23.714c-0,-12.648 -4.743,-22.925 -14.229,-30.829c-9.486,-7.905 -25.295,-11.858 -47.429,-11.858c-29.863,0 -53.753,6.325 -71.67,18.972c-17.918,12.648 -26.877,29.687 -26.877,51.118c0,16.513 6.763,30.126 20.289,40.841c13.526,10.716 52.392,13.834 66.137,17.654c5.513,1.533 12.823,1.757 16.337,5.27c3.514,3.513 7.304,10.94 4.742,15.81c-4.478,8.52 -17.242,28.757 -31.618,35.308c-17.347,7.905 -53.314,4.743 -72.461,12.121c-19.147,7.378 -33.024,16.776 -41.632,28.194c-8.608,11.417 -12.911,23.626 -12.911,36.625c-0,21.782 10.188,38.207 30.565,49.274c20.377,11.066 52.699,16.599 96.966,16.599c29.159,0 59.988,-3.425 92.486,-10.276c32.497,-6.85 60.339,-15.194 83.527,-25.032Z" style="fill:#fff;fill-rule:nonzero;"/><path d="M1136.84,662.905c0.076,3.168 2.861,19.283 4.316,25.254c0.904,3.707 1.765,8.722 4.413,10.565c2.65,1.842 8.346,2.536 11.483,0.49c3.138,-2.048 5.138,-7.286 7.343,-12.772c5.643,-14.042 10.127,-32.304 14.133,-52.951c13.415,-69.154 20.58,-162.654 33.343,-227.499c7.96,-40.438 19.84,-71.128 33.143,-85.43c12.797,-13.761 27.687,-18.941 43.778,-17.058c12.261,1.435 23.965,7.46 33.624,19.927c6.987,9.019 13.457,23.219 18.168,41.849c13.175,52.103 16.142,148.73 22.032,230.028c1.747,24.109 3.754,46.765 6.524,66.136c10.845,-48.584 16.688,-117.596 23.963,-177.607c6.65,-54.859 15.333,-102.809 27.618,-126.531c12.442,-24.028 30.448,-32.755 47.642,-32.241c19.831,0.592 42.572,16.723 53.438,54.696c11.197,39.133 15.462,108.764 19.289,177.082c3.468,61.911 6.266,122.665 16.476,153.192c5.852,17.498 -3.603,36.456 -21.102,42.308c-17.498,5.851 -36.456,-3.604 -42.308,-21.102c-18.017,-53.872 -17.288,-194.805 -28.281,-286.083c-4.822,30.023 -8.642,65.655 -12.658,101.425c-7.745,68.98 -16.831,138.307 -32.683,174.864c-12.736,29.37 -32.291,42.991 -51.257,44.765c-18.779,1.757 -37.837,-6.879 -50.315,-32.754c-11.8,-24.466 -18.815,-75.124 -23.032,-133.318c-4.792,-66.12 -7.194,-142.835 -15.544,-195.157c-4.174,18.13 -7.651,39.595 -10.939,62.642c-11.021,77.266 -19.528,170.894 -36.995,226.734c-10.906,34.865 -27.889,57.276 -45.16,65.67c-25.413,12.349 -45.691,11.773 -61.601,5.998c-16.693,-6.06 -30.914,-20.349 -39.227,-36.039c-9.735,-18.373 -22.059,-75.58 -19.186,-74.203c-10.891,27.214 -29.687,40.82 -56.388,40.82c-20.026,0 -36.275,-7.12 -48.746,-21.359c-12.472,-14.24 -18.708,-32.91 -18.708,-56.01c0,-25.315 6.499,-49.285 19.498,-71.91c12.999,-22.626 30.302,-40.821 51.909,-54.586c21.606,-13.765 44.53,-20.647 68.772,-20.647c7.728,-0 12.911,1.345 15.546,4.034c2.635,2.69 4.831,7.515 6.587,14.477c6.675,-1.266 14.053,-1.899 22.134,-1.899c8.431,0 14.931,1.899 19.498,5.696c4.567,3.798 6.851,9.178 6.851,16.139c0,7.278 -1.757,19.935 -5.27,37.972c-3.865,19.303 -6.851,37.735 -8.959,55.298c-2.107,17.563 -3.359,50.844 -3.162,59.095Zm-105.397,-14.24c9.837,-0 18.796,-6.171 26.877,-18.511c8.079,-12.342 15.282,-34.334 21.605,-65.978l10.013,-47.94c-14.404,0.316 -27.755,5.3 -40.051,14.952c-12.296,9.651 -22.133,22.387 -29.511,38.209c-7.378,15.822 -11.067,32.593 -11.067,50.314c-0,9.493 2.02,16.692 6.06,21.597c4.041,4.904 9.398,7.357 16.074,7.357Z" style="fill:#fff;fill-rule:nonzero;"/></g><path d="M159.331,512.406c-10.912,16.329 -8.489,255.968 125.866,353.108c140.614,101.665 352.625,12.27 357.753,-15.248c6.011,-32.254 -183.036,-9.725 -292.28,-82.728c-109.246,-73.004 -180.426,-271.461 -191.339,-255.132Z" style="fill:#ffff0a;fill-opacity:0;"/></g></g></svg>